<?xml version="1.0" encoding="utf-8"?>
<?xml-stylesheet type="text/xsl" href="rss1.xsl"?>
<rss version="2.0" xmlns:atom="http://www.w3.org/2005/Atom" xmlns:content="http://purl.org/rss/1.0/modules/content/" xmlns:dc="http://purl.org/dc/elements/1.1/" xmlns:media="http://search.yahoo.com/mrss/">
<channel>
 <title>Getty</title>
 <link>http://www.gettyimg.com/</link>
 <atom:link href="http://www.gettyimg.com/" rel="self" type="application/rss+xml" />

 
                <item>
                <title><![CDATA[【UPSCALED】Avril Lavigne - Mobile (Music Video) FHD Upscaled]]></title>
                <link><![CDATA[https://sharemania.us/threads/avril-lavigne-mobile-music-video-fhd-upscaled.234624/]]></link>
                <description><![CDATA[<article>
<blockquote class="messageText SelectQuoteContainer ugc baseHtml">
<img src="https://i.imgur.com/3O9w87O.png" class="bbCodeImage LbImage" alt="[​IMG]" data-url="https://i.imgur.com/3O9w87O.png" style=""> <img src="https://i.imgur.com/BlkSEAU.png" class="bbCodeImage LbImage" alt="[​IMG]" data-url="https://i.imgur.com/BlkSEAU.png" style=""> <img src="https://i.imgur.com/IBd46lq.png" class="bbCodeImage LbImage" alt="[​IMG]" data-url="https://i.imgur.com/IBd46lq.png" style=""> <img src="https://i.imgur.com/Rp4k7im.png" class="bbCodeImage LbImage" alt="[​IMG]" data-url="https://i.imgur.com/Rp4k7im.png" style="">
<div class="ToggleTriggerAnchor bbCodeSpoilerContainer">
<button type="button" class="button bbCodeSpoilerButton ToggleTrigger Tooltip JsOnly" data-target="> .SpoilerTarget"><span>Spoiler: <span class="SpoilerTitle">MediaInfo</span></span></button>
<div class="SpoilerTarget bbCodeSpoilerText">General<br>
File size : 1.05 GiB<br>
Duration : 3 min 32 s<br>
Overall bit rate : 42.2 Mb/s<br>
Encoded date : UTC 2010-02-22 21:41:29<br>
Writing application : Lavf60.14.101<br>
Writing library : Lavf60.14.101<br>
ErrorDetectionType : Per level 1<br>
<br>
Video<br>
ID : 1<br>
Format : AVC<br>
Format/Info : Advanced Video Codec<br>
Format profile : High@L4.2<br>
Format settings : CABAC / 1 Ref Frames<br>
Format settings, CABAC : Yes<br>
Format settings, Reference fra : 1 frame<br>
Format settings, GOP : M=1, N=30<br>
Codec ID : V_MPEG4/ISO/AVC<br>
Duration : 3 min 32 s<br>
Bit rate : 39.1 Mb/s<br>
Width : 1 440 pixels<br>
Height : 1 080 pixels<br>
Display aspect ratio : 4:3<br>
Frame rate mode : Constant<br>
Frame rate : 29.970 (30000/1001) FPS<br>
Standard : Component<br>
Color space : YUV<br>
Chroma subsampling : 4:2:0<br>
Bit depth : 8 bits<br>
Scan type : Progressive<br>
Bits/(Pixel*Frame) : 0.838<br>
Stream size : 990 MiB (93%)<br>
Writing library : Lavc60.27.101 h264_amf<br>
Language : English<br>
Default : No<br>
Forced : No<br>
Color range : Limited<br>
Matrix coefficients : BT.709<br>
VENDOR_ID : FFMP<br>
<br>
Audio<br>
ID : 2<br>
Format : PCM<br>
Format settings : Little / Signed<br>
Codec ID : A_PCM/INT/LIT<br>
Duration : 3 min 32 s<br>
Bit rate mode : Constant<br>
Bit rate : 2 304 kb/s<br>
Channel(s) : 2 channels<br>
Sampling rate : 48.0 kHz<br>
Bit depth : 24 bits<br>
Stream size : 58.2 MiB (5%)<br>
Writing library : Lavc60.27.101 pcm_s24le<br>
Language : English<br>
Default : Yes<br>
Forced : No<br>
VENDOR_ID : [0][0][0][0]</div>
</div><br>
<div class="bbCodeBlock bbCodeVfcHH HiddenContent">
<div class="attribution type">Hidden Content:</div>
<blockquote>You must reply before you can see the hidden data contained here.</blockquote>
</div>
<div class="messageTextEndMarker">&nbsp;</div>
</blockquote>
</article>]]></description>
                <author><![CDATA[Avril1255]]></author>
                </item>

                </channel></rss>